<svg id="Слой_1" data-name="Слой 1" xmlns="http://www.w3.org/2000/svg" viewBox="0 0 356.66 334.65"><defs><style>.cls-1,.cls-2{stroke:#000;stroke-miterlimit:10;}.cls-1{fill-rule:evenodd;}</style></defs><title>stickman</title><circle cx="85.54" cy="33.5" r="33"/><path d="M93.5,5A32.5,32.5,0,1,1,61,37.5,32.54,32.54,0,0,1,93.5,5m0-1A33.5,33.5,0,1,0,127,37.5,33.5,33.5,0,0,0,93.5,4Z" transform="translate(-7.96 -4)"/><path class="cls-1" d="M90.5,236.5h0C65.92,236.5,54,226.58,54,202L46,92.08A18.58,18.58,0,0,1,64.58,73.5h51.84A18.58,18.58,0,0,1,135,92.08L127,202C127,226.58,115.08,236.5,90.5,236.5Z" transform="translate(-7.96 -4)"/><path class="cls-1" d="M359.24,173h0A11.51,11.51,0,0,0,362,157,164.85,164.85,0,0,1,324.5,114.5a162.89,162.89,0,0,1-14-29L299.79,68.74A11.75,11.75,0,0,0,292.35,64,11.48,11.48,0,0,0,283.76,66h0A11.51,11.51,0,0,0,281,82,293.37,293.37,0,0,0,310.5,132.5a293.34,293.34,0,0,0,32.71,37.76C343.65,170.89,346.06,174.17,359.24,173Z" transform="translate(-7.96 -4)"/><rect class="cls-2" x="111.1" y="184.34" width="23" height="157.19" rx="11.5" transform="translate(-84.21 47.69) rotate(-18.27)"/><rect class="cls-2" x="47.1" y="184.34" width="23" height="157.19" rx="11.5" transform="translate(23.87 526.98) rotate(-161.73)"/><path class="cls-1" d="M15.33,197h0a11.51,11.51,0,0,0,14.86-6.62,164.6,164.6,0,0,1,14.43-54.83,162.76,162.76,0,0,1,16.29-27.78l8-18.23a11.79,11.79,0,0,0-.23-8.8,11.45,11.45,0,0,0-6.39-6h0A11.5,11.5,0,0,0,47.39,81.3,293.76,293.76,0,0,0,8.71,182.14C8.44,182.86,7.05,186.69,15.33,197Z" transform="translate(-7.96 -4)"/><path class="cls-1" d="M164.74,197h0a11.5,11.5,0,0,1-14.85-6.62,165.09,165.09,0,0,0-14.43-54.83,162.75,162.75,0,0,0-16.3-27.78l-8-18.23a11.75,11.75,0,0,1,.24-8.8,11.44,11.44,0,0,1,6.38-6h0a11.5,11.5,0,0,1,14.86,6.61,294.09,294.09,0,0,1,25.53,52.64,294.3,294.3,0,0,1,13.15,48.2C171.63,182.86,173,186.69,164.74,197Z" transform="translate(-7.96 -4)"/></svg>