<svg id="Слой_1" data-name="Слой 1" xmlns="http://www.w3.org/2000/svg" width="164.16" height="337.8" viewBox="0 0 164.16 337.8">
  <defs>
    <style>
      .cls-1 {
        stroke: #000;
        stroke-miterlimit: 10;
        fill-rule: evenodd;
      }
    </style>
  </defs>
  <title>Stickman v1.0</title>
  <g>
    <g>
      <circle cx="82.08" cy="33.5" r="33"/>
      <path d="M90.17,7a32.5,32.5,0,1,1-32.5,32.5A32.54,32.54,0,0,1,90.17,7m0-1a33.5,33.5,0,1,0,33.5,33.5A33.5,33.5,0,0,0,90.17,6Z" transform="translate(-8.09 -6)"/>
    </g>
    <path class="cls-1" d="M90.17,238.5h0c-24.58,0-36.5-9.92-36.5-34.5l-8-109.92A18.58,18.58,0,0,1,64.25,75.5h51.84a18.58,18.58,0,0,1,18.58,18.58l-8,109.92C126.67,228.58,114.75,238.5,90.17,238.5Z" transform="translate(-8.09 -6)"/>
    <g>
      <path class="cls-1" d="M15.47,199h0a11.5,11.5,0,0,0,14.85-6.62,165.09,165.09,0,0,1,14.43-54.83A163.42,163.42,0,0,1,61,109.77l8-18.23a11.68,11.68,0,0,0-.23-8.8,11.47,11.47,0,0,0-6.38-6h0A11.49,11.49,0,0,0,47.53,83.3,293.21,293.21,0,0,0,8.85,184.14C8.57,184.86,7.19,188.69,15.47,199Z" transform="translate(-8.09 -6)"/>
      <path class="cls-1" d="M164.88,199h0A11.51,11.51,0,0,1,150,192.38a164.6,164.6,0,0,0-14.43-54.83,163.42,163.42,0,0,0-16.29-27.78l-8-18.23a11.73,11.73,0,0,1,.23-8.8,11.45,11.45,0,0,1,6.39-6h0a11.48,11.48,0,0,1,14.85,6.61,293.41,293.41,0,0,1,25.53,52.64,293.29,293.29,0,0,1,13.15,48.2C171.77,184.86,173.16,188.69,164.88,199Z" transform="translate(-8.09 -6)"/>
    </g>
    <g>
      <path class="cls-1" d="M64.59,343.28h0a11.52,11.52,0,0,0,12.29-10.67c.88-7.87,2.16-19.95,3.42-34.84,1.5-17.65,1.12-17.29,2.09-26.17,2.62-23.8,5.62-28.34,6.15-44a132.93,132.93,0,0,0-2.21-28.88,11.72,11.72,0,0,0-2.78-8.35,11.47,11.47,0,0,0-7.88-3.93h0a11.5,11.5,0,0,0-12.28,10.66,214.71,214.71,0,0,0-4.67,21.51,228,228,0,0,0-2.78,41,584.89,584.89,0,0,1-3.35,63.48,13.82,13.82,0,0,0,1.16,15.61C57.76,343.47,63.81,343.31,64.59,343.28Z" transform="translate(-8.09 -6)"/>
      <path class="cls-1" d="M115.75,343.28h0a11.5,11.5,0,0,1-12.28-10.67c-.89-7.87-2.17-19.95-3.43-34.84-1.5-17.65-1.11-17.29-2.09-26.17-2.62-23.8-5.61-28.34-6.15-44A133.57,133.57,0,0,1,94,198.76a11.74,11.74,0,0,1,2.79-8.35,11.44,11.44,0,0,1,7.87-3.93h0A11.49,11.49,0,0,1,117,197.14a214.71,214.71,0,0,1,4.67,21.51,227,227,0,0,1,2.78,41,584.89,584.89,0,0,0,3.35,63.48,13.82,13.82,0,0,1-1.16,15.61C122.58,343.47,116.54,343.31,115.75,343.28Z" transform="translate(-8.09 -6)"/>
    </g>
  </g>
</svg>
